<?xml version="1.0" encoding="UTF-8"?>
<svg width="200" height="200" viewBox="0 0 200 200" fill="none" xmlns="http://www.w3.org/2000/svg">
  <path d="M100 20C128.7 20 152.8 44.1 152.8 72.8C152.8 101.5 128.7 125.6 100 125.6C71.3 125.6 47.2 101.5 47.2 72.8C47.2 44.1 71.3 20 100 20Z" fill="#4ACFFF" fill-opacity="0.15"/>
  <path d="M160 80C174.9 80 187 92.1 187 107C187 121.9 174.9 134 160 134C145.1 134 133 121.9 133 107C133 92.1 145.1 80 160 80Z" fill="#4ACFFF" fill-opacity="0.2"/>
  <path d="M40 100C54.9 100 67 112.1 67 127C67 141.9 54.9 154 40 154C25.1 154 13 141.9 13 127C13 112.1 25.1 100 40 100Z" fill="#4ACFFF" fill-opacity="0.1"/>
</svg>
