<svg width="512" height="512" viewBox="0 0 512 512" fill="none" xmlns="http://www.w3.org/2000/svg">
<g clip-path="url(#clip0_1746_3748)">
<mask id="mask0_1746_3748" style="mask-type:luminance" maskUnits="userSpaceOnUse" x="0" y="0" width="512" height="512">
<path d="M512 0H0V512H512V0Z" fill="white"/>
</mask>
<g mask="url(#mask0_1746_3748)">
<path d="M324.418 103.15L383.998 128L408.838 187.58C409.502 188.911 410.523 190.031 411.788 190.814C413.053 191.597 414.511 192.011 415.998 192.011C417.486 192.011 418.944 191.597 420.209 190.814C421.473 190.031 422.495 188.911 423.158 187.58L447.998 128L507.578 103.15C508.907 102.485 510.024 101.464 510.805 100.2C511.586 98.9365 512 97.4803 512 95.9948C512 94.5092 511.586 93.053 510.805 91.7893C510.024 90.5256 508.907 89.5043 507.578 88.8398L447.998 63.9998L423.158 4.41975C422.495 3.08849 421.473 1.96858 420.209 1.18577C418.944 0.402969 417.486 -0.0117186 415.998 -0.0117188C414.511 -0.0117188 413.053 0.402969 411.788 1.18577C410.523 1.96858 409.502 3.08849 408.838 4.41975L383.998 63.9998L324.418 88.8398C323.09 89.5043 321.972 90.5256 321.192 91.7893C320.411 93.053 319.997 94.5092 319.997 95.9948C319.997 97.4803 320.411 98.9365 321.192 100.2C321.972 101.464 323.09 102.485 324.418 103.15ZM507.578 408.84L447.998 384L423.158 324.42C422.495 323.089 421.473 321.969 420.209 321.186C418.944 320.403 417.486 319.988 415.998 319.988C414.511 319.988 413.053 320.403 411.788 321.186C410.523 321.969 409.502 323.089 408.838 324.42L383.998 384L324.418 408.84C323.087 409.503 321.967 410.525 321.184 411.79C320.402 413.054 319.987 414.512 319.987 416C319.987 417.487 320.402 418.945 321.184 420.21C321.967 421.475 323.087 422.496 324.418 423.16L383.998 448L408.838 507.58C409.502 508.911 410.523 510.031 411.788 510.814C413.053 511.597 414.511 512.011 415.998 512.011C417.486 512.011 418.944 511.597 420.209 510.814C421.473 510.031 422.495 508.911 423.158 507.58L447.998 448L507.578 423.16C508.91 422.496 510.03 421.475 510.812 420.21C511.595 418.945 512.01 417.487 512.01 416C512.01 414.512 511.595 413.054 510.812 411.79C510.03 410.525 508.91 409.503 507.578 408.84ZM383.998 255.64C383.996 252.667 383.168 249.753 381.607 247.223C380.046 244.693 377.814 242.646 375.158 241.31L262.588 184.92L206.308 72.1498C200.868 61.2798 183.118 61.2798 177.688 72.1498L121.408 184.92L8.83843 241.31C6.168 242.634 3.92046 244.677 2.34917 247.21C0.777882 249.743 -0.0546875 252.664 -0.0546875 255.645C-0.0546875 258.625 0.777882 261.547 2.34917 264.079C3.92046 266.612 6.168 268.656 8.83843 269.98L121.408 326.37L177.688 439.14C179.017 441.797 181.06 444.032 183.588 445.594C186.115 447.155 189.027 447.983 191.998 447.983C194.97 447.983 197.882 447.155 200.409 445.594C202.937 444.032 204.979 441.797 206.308 439.14L262.588 326.37L375.158 270C377.818 268.66 380.052 266.608 381.613 264.072C383.174 261.537 384 258.617 383.998 255.64Z" fill="#5855F4"/>
</g>
</g>
<defs>
<clipPath id="clip0_1746_3748">
<rect width="512" height="512" fill="white"/>
</clipPath>
</defs>
</svg>
